<svg width="50" height="50" viewBox="0 0 50 50" fill="none" xmlns="http://www.w3.org/2000/svg">

    <!-- logo -->

    <g id="logo">
        <path d="M3.34,0h116.2a3.35,3.35,0,0,1,3.34,3.34v77a3.35,3.35,0,0,1-3.34,3.34H3.34A3.35,3.35,0,0,1,0,80.32v-77A3.35,3.35,0,0,1,3.34,0ZM13.49,63.91a2.59,2.59,0,1,1,0-5.17H52.94a2.59,2.59,0,1,1,0,5.17Zm.15-13.28a2.59,2.59,0,0,1,0-5.17H42.4a2.59,2.59,0,0,1,0,5.17ZM13.49,37.4a2.59,2.59,0,1,1,0-5.17H33.85a2.59,2.59,0,0,1,0,5.17Zm0-13.26a2.59,2.59,0,1,1,0-5.17H25.3a2.59,2.59,0,0,1,0,5.17Zm97,26.19v6.44l-13.23,7.5v-7.5l8.52-3.24-8.52-3.2v-7.5l13.23,7.5Zm-22.92,16H82l7-27.11h5.63l-7,27.11Zm-9.41-16-8.53,3.2,8.53,3.24v7.5L65,56.77V50.33l13.24-7.5v7.5Zm5.67-38.68v3.67A1.83,1.83,0,0,1,82,17.15H79a14.43,14.43,0,0,1-1.6,3.5l2,2a1.83,1.83,0,0,1,0,2.58l-2.71,2.71a1.83,1.83,0,0,1-2.58,0l-2.18-2.18a14.43,14.43,0,0,1-3.6,1.35v2.82a1.84,1.84,0,0,1-1.83,1.83H62.63a1.84,1.84,0,0,1-1.83-1.83V26.85a14.2,14.2,0,0,1-3.5-1.59l-2,2a1.82,1.82,0,0,1-2.59,0L50,24.55A1.84,1.84,0,0,1,50,22l2.18-2.17a14.5,14.5,0,0,1-1.35-3.61H48a1.83,1.83,0,0,1-1.83-1.83v-2.7H3.09V70.84a3,3,0,0,0,3,3H116.85a3,3,0,0,0,3-3V11.65Zm-11.42,0H57.62a7.71,7.71,0,0,0-.11,1.28,7.52,7.52,0,0,0,15,0,7.71,7.71,0,0,0-.1-1.28Zm41.79-6.73a2,2,0,1,1-2,2,2,2,0,0,1,2-2Zm-13.44,0a2,2,0,1,1-2,2,2,2,0,0,1,2-2Zm6.72,0a2,2,0,1,1-2,2,2,2,0,0,1,2-2ZM46.29,88.27h30.3c.08,5.24,2.24,9.94,8.09,13.63H38.2c4.71-3.41,8.11-7.54,8.09-13.63Z" fill="currentColor"/>
    </g>

    <!-- socials -->

    <g id="github">
        <path d="M15 0C6.71 0 0 6.71 0 15C0 21.63 4.29 27.24 10.25 29.23C11 29.36 11.28 28.91 11.28 28.51C11.28 28.16 11.26 26.98 11.26 25.72C7.5 26.41 6.52 24.8 6.22 23.96C6.05 23.53 5.32 22.2 4.68 21.84C4.16 21.56 3.41 20.86 4.66 20.85C5.84 20.83 6.69 21.93 6.97 22.38C8.32 24.65 10.48 24.01 11.34 23.62C11.47 22.64 11.86 21.99 12.3 21.61C8.96 21.24 5.47 19.95 5.47 14.21C5.47 12.58 6.05 11.23 7.01 10.18C6.86 9.8 6.33 8.26 7.16 6.2C7.16 6.2 8.41 5.81 11.28 7.74C12.48 7.4 13.76 7.23 15.03 7.23C16.31 7.23 17.58 7.4 18.78 7.74C21.65 5.79 22.91 6.2 22.91 6.2C23.73 8.26 23.21 9.8 23.06 10.18C24.01 11.23 24.6 12.56 24.6 14.21C24.6 19.96 21.09 21.24 17.75 21.61C18.29 22.08 18.76 22.98 18.76 24.39C18.76 26.39 18.75 28.01 18.75 28.51C18.75 28.91 19.03 29.38 19.78 29.23C22.75 28.22 25.34 26.31 27.17 23.75C29.01 21.2 29.99 18.14 30 15C30 6.71 23.28 0 15 0Z" fill="currentColor"/>
    </g>

    <g id="linkedin">
        <defs>
        <clipPath id="clip2_5860">
            <rect rx="-0.500000" width="29.000000" height="29.000000" transform="translate(0.500000 0.500000)" fill="white" fill-opacity="0"/>
        </clipPath>
        </defs>
        <rect rx="-0.500000" width="29.000000" height="29.000000" transform="translate(0.500000 0.500000)" fill="#FFFFFF" fill-opacity="0"/>
        <g clip-path="url(#clip2_5860)">
            <path d="M15 0.6C7.04 0.6 0.59 7.04 0.59 15C0.59 22.95 7.04 29.4 15 29.4C22.95 29.4 29.4 22.95 29.4 15C29.4 7.04 22.95 0.6 15 0.6ZM11.47 20.96L8.55 20.96L8.55 11.58L11.47 11.58L11.47 20.96ZM9.99 10.43C9.07 10.43 8.48 9.78 8.48 8.97C8.48 8.14 9.09 7.51 10.03 7.51C10.97 7.51 11.55 8.14 11.57 8.97C11.57 9.78 10.97 10.43 9.99 10.43ZM22.12 20.96L19.2 20.96L19.2 15.76C19.2 14.55 18.78 13.73 17.73 13.73C16.92 13.73 16.44 14.29 16.23 14.82C16.15 15.01 16.13 15.28 16.13 15.55L16.13 20.96L13.22 20.96L13.22 14.57C13.22 13.4 13.18 12.42 13.14 11.58L15.67 11.58L15.81 12.88L15.87 12.88C16.25 12.27 17.19 11.37 18.76 11.37C20.68 11.37 22.12 12.65 22.12 15.42L22.12 20.96Z" fill="currentColor"/>
        </g>
    </g>

    <g id="instagram">
        <path d="M17.25 7.288v1.269c0 .297-.241.539-.538.539h-1.269c-.299 0-.538-.242-.538-.539v-1.269c0-.297.239-.538.538-.538h1.269c.297 0 .538.241.538.538zm-5.25 7.403c1.486 0 2.693-1.205 2.693-2.692s-1.207-2.69-2.693-2.69c-1.487 0-2.691 1.204-2.691 2.691s1.204 2.691 2.691 2.691zm4.261-3.291c.028.196.046.396.046.599 0 2.38-1.928 4.308-4.307 4.308s-4.307-1.928-4.307-4.307c0-.204.018-.403.046-.599.027-.194.066-.383.118-.567h-1.107v5.879c0 .297.241.538.538.538h9.424c.297 0 .538-.241.538-.538v-5.879h-1.107c.05.184.09.373.118.566zm7.739.6c0 6.627-5.373 12-12 12s-12-5.373-12-12 5.373-12 12-12 12 5.373 12 12zm-5-5.385c0-.892-.723-1.615-1.615-1.615h-10.77c-.892 0-1.615.723-1.615 1.615v10.769c0 .893.723 1.616 1.615 1.616h10.77c.892 0 1.615-.723 1.615-1.616v-10.769z" fill="currentColor"/>
    </g>

    <!-- skills --> 

    <g id="html">
        <path fill="#E65100" d="M41,5H7l3,34l14,4l14-4L41,5L41,5z"></path>
        <path fill="#FF6D00" d="M24 8L24 39.9 35.2 36.7 37.7 8z"></path>
        <path fill="#FFF" d="M24,25v-4h8.6l-0.7,11.5L24,35.1v-4.2l4.1-1.4l0.3-4.5H24z M32.9,17l0.3-4H24v4H32.9z"></path>
        <path fill="#EEE" d="M24,30.9v4.2l-7.9-2.6L15.7,27h4l0.2,2.5L24,30.9z M19.1,17H24v-4h-9.1l0.7,12H24v-4h-4.6L19.1,17z"></path>
    </g>

    <g id="css">
        <linearGradient id="TQDriqswrKwPOniLrPT12a_7gdY5qNXaKC0_gr1" x1="16.33" x2="32.293" y1="-2.748" y2="41.109" gradientUnits="userSpaceOnUse">
            <stop offset="0" stop-color="#2aa4f4"></stop>
            <stop offset="1" stop-color="#007ad9"></stop>
        </linearGradient>
        <path fill="url(#TQDriqswrKwPOniLrPT12a_7gdY5qNXaKC0_gr1)" d="M7.192,7.176l2.627,29.77c0.109,1.237,0.97,2.28,2.164,2.621l10.643,3.041	c0.898,0.257,1.849,0.257,2.747,0l10.643-3.041c1.194-0.341,2.055-1.383,2.164-2.621l2.627-29.77C40.911,6.006,39.99,5,38.816,5	H9.184C8.01,5,7.089,6.006,7.192,7.176z"></path>
        <path fill="#35c1f1" d="M24,8v31.9l9.876-2.822c0.797-0.228,1.371-0.924,1.443-1.749l2.286-26.242	C37.656,8.502,37.196,8,36.609,8H24z"></path>
        <path fill="#fff" d="M33.1,13H24v4h4.9l-0.3,4H24v4h4.4l-0.3,4.5L24,30.9v4.2l7.9-2.6L32.6,21l0,0L33.1,13z"></path>
        <path fill="#d6e0e9" d="M24,13v4h-8.9l-0.3-4H24z M19.4,21l0.2,4H24v-4H19.4z M19.8,27h-4l0.3,5.5l7.9,2.6v-4.2l-4.1-1.4	L19.8,27z"></path>
        <path d="M33.1,13l-0.5,8l-0.7,11.5L24,35.1l-7.9-2.6L15.8,27h4l0.1,2.5l4.1,1.4l4.1-1.4l0.3-4.5H24h-4.4l-0.2-4H24h4.6l0.3-4H24 h-8.9l-0.3-4H24H33.1 M34.164,12H33.1H24h-9.2h-1.078l0.081,1.075l0.3,4L14.172,18H15.1H24h3.822l-0.15,2H24h-4.6h-1.051 l0.052,1.05l0.2,4L18.649,26H15.8h-1.056l0.058,1.054l0.3,5.5l0.037,0.682l0.649,0.214l7.9,2.6L24,36.153l0.313-0.103l7.9-2.6 l0.644-0.212l0.041-0.677l0.7-11.5l0.5-7.998L34.164,12L34.164,12z M20.761,26H24h3.331l-0.185,2.769L24,29.843l-3.128-1.068 l-0.073-1.815L20.761,26L20.761,26z" opacity=".05"></path>
        <path d="M33.1,13l-0.5,8l-0.7,11.5L24,35.1l-7.9-2.6L15.8,27h4l0.1,2.5l4.1,1.4l4.1-1.4l0.3-4.5H24h-4.4l-0.2-4H24h4.6l0.3-4H24 h-8.9l-0.3-4H24H33.1 M33.632,12.5H33.1H24h-9.2h-0.539l0.04,0.537l0.3,4l0.035,0.463H15.1H24h4.361l-0.225,3H24h-4.6h-0.526 l0.026,0.525l0.2,4l0.024,0.475H19.6H24h3.866l-0.242,3.634L24,30.372l-3.614-1.234L20.3,26.98L20.28,26.5H19.8h-4h-0.528 l0.029,0.527l0.3,5.5l0.019,0.341l0.324,0.107l7.9,2.6L24,35.626l0.156-0.051l7.9-2.6l0.322-0.106l0.021-0.339l0.7-11.5l0.5-7.999 L33.632,12.5L33.632,12.5z" opacity=".07"></path>
    </g>

    <g id="js">
        <path fill="#f7df1e" d="M6,42V6h36v36H6z"></path>
        <path fill="#000001" d="M29.538,32.947c0.692,1.124,1.444,2.201,3.037,2.201c1.338,0,2.04-0.665,2.04-1.585 c0-1.101-0.726-1.492-2.198-2.133l-0.807-0.344c-2.329-0.988-3.878-2.226-3.878-4.841c0-2.41,1.845-4.244,4.728-4.244 c2.053,0,3.528,0.711,4.592,2.573l-2.514,1.607c-0.553-0.988-1.151-1.377-2.078-1.377c-0.946,0-1.545,0.597-1.545,1.377 c0,0.964,0.6,1.354,1.985,1.951l0.807,0.344C36.452,29.645,38,30.839,38,33.523C38,36.415,35.716,38,32.65,38 c-2.999,0-4.702-1.505-5.65-3.368L29.538,32.947z M17.952,33.029c0.506,0.906,1.275,1.603,2.381,1.603 c1.058,0,1.667-0.418,1.667-2.043V22h3.333v11.101c0,3.367-1.953,4.899-4.805,4.899c-2.577,0-4.437-1.746-5.195-3.368 L17.952,33.029z"></path>
    </g>

    <g id="react">
        <path fill="#80deea" d="M24,34C11.1,34,1,29.6,1,24c0-5.6,10.1-10,23-10c12.9,0,23,4.4,23,10C47,29.6,36.9,34,24,34z M24,16	c-12.6,0-21,4.1-21,8c0,3.9,8.4,8,21,8s21-4.1,21-8C45,20.1,36.6,16,24,16z"></path>
        <path fill="#80deea" d="M15.1,44.6c-1,0-1.8-0.2-2.6-0.7C7.6,41.1,8.9,30.2,15.3,19l0,0c3-5.2,6.7-9.6,10.3-12.4c3.9-3,7.4-3.9,9.8-2.5	c2.5,1.4,3.4,4.9,2.8,9.8c-0.6,4.6-2.6,10-5.6,15.2c-3,5.2-6.7,9.6-10.3,12.4C19.7,43.5,17.2,44.6,15.1,44.6z M32.9,5.4	c-1.6,0-3.7,0.9-6,2.7c-3.4,2.7-6.9,6.9-9.8,11.9l0,0c-6.3,10.9-6.9,20.3-3.6,22.2c1.7,1,4.5,0.1,7.6-2.3c3.4-2.7,6.9-6.9,9.8-11.9	c2.9-5,4.8-10.1,5.4-14.4c0.5-4-0.1-6.8-1.8-7.8C34,5.6,33.5,5.4,32.9,5.4z"></path>
        <path fill="#80deea" d="M33,44.6c-5,0-12.2-6.1-17.6-15.6C8.9,17.8,7.6,6.9,12.5,4.1l0,0C17.4,1.3,26.2,7.8,32.7,19	c3,5.2,5,10.6,5.6,15.2c0.7,4.9-0.3,8.3-2.8,9.8C34.7,44.4,33.9,44.6,33,44.6z M13.5,5.8c-3.3,1.9-2.7,11.3,3.6,22.2	c6.3,10.9,14.1,16.1,17.4,14.2c1.7-1,2.3-3.8,1.8-7.8c-0.6-4.3-2.5-9.4-5.4-14.4C24.6,9.1,16.8,3.9,13.5,5.8L13.5,5.8z"></path>
        <circle cx="24" cy="24" r="4" fill="#80deea"></circle>
    </g>

    <g id="redux">
        <path fill="#7e57c2" d="M23,4c-6.617,0-12,7.27-12,16.205c0,4.834,1.582,9.169,4.078,12.136C15.03,32.554,15,32.773,15,33	c0,1.657,1.343,3,3,3s3-1.343,3-3s-1.343-3-3-3c-0.315,0-0.612,0.062-0.897,0.152C15.206,27.731,14,24.175,14,20.205	C14,12.924,18.037,7,23,7c3.837,0,7.111,3.547,8.404,8.518c1.122,0.346,2.237,0.782,3.33,1.308C33.579,9.508,28.759,4,23,4z"></path>
        <path fill="#7e57c2" d="M35.507,20.084c-3.947-2.392-8.374-3.442-12.182-2.959C22.775,16.444,21.943,16,21,16	c-1.657,0-3,1.343-3,3s1.343,3,3,3c1.272,0,2.353-0.795,2.789-1.912c3.118-0.379,6.812,0.531,10.163,2.563	c6.403,3.881,9.67,10.569,7.282,14.911c-0.827,1.504-2.286,2.572-4.218,3.09c-2.286,0.611-5.007,0.394-7.727-0.528	c-0.839,0.772-1.749,1.498-2.725,2.168c2.552,1.117,5.196,1.704,7.669,1.704c1.24,0,2.438-0.147,3.559-0.447	c2.741-0.733,4.841-2.304,6.071-4.542C47.016,33.276,43.267,24.787,35.507,20.084z"></path>
        <path fill="#7e57c2" d="M35,28.992C35,27.34,33.657,26,32,26s-3,1.34-3,2.992c0,0.669,0.228,1.281,0.6,1.779	c-1.279,2.802-3.744,5.567-7.062,7.578c-3.865,2.344-8.185,3.202-11.555,2.302c-1.932-0.518-3.391-1.586-4.218-3.09	c-1.702-3.094-0.521-7.376,2.61-10.988c-0.323-1.144-0.562-2.34-0.706-3.575c-5.07,4.797-7.109,11.323-4.532,16.009	c1.23,2.238,3.33,3.809,6.071,4.542c1.121,0.3,2.318,0.447,3.559,0.447c3.346,0,7.007-1.068,10.326-3.08	c3.836-2.325,6.683-5.577,8.209-8.962C33.815,31.801,35,30.541,35,28.992z"></path>
    </g>

    <g id="bootstrap">
        <path fill="#673ab7" d="M42,37c0,2.762-2.238,5-5,5H11c-2.761,0-5-2.238-5-5V11c0-2.762,2.239-5,5-5h26c2.762,0,5,2.238,5,5 V37z"></path>
        <path fill="#fff" d="M33.03,25.6c-0.65-0.9-1.59-1.52-2.8-1.85c0,0,1.02-0.37,1.94-1.75c0.55-0.88,0.83-1.94,0.83-3.18 c0-2.15-0.78-3.8-2.34-4.93C29.1,12.76,27.34,12,24.35,12H15v24h10.43c2.83-0.02,4.96-0.63,6.41-1.8c1.44-1.19,2.16-2.95,2.16-5.3 C34,27.6,33.68,26.5,33.03,25.6z M21,16c0,0,4.17,0,4.25,0c1.52,0,2.75,1.23,2.75,2.75c0,1.52-1.23,2.75-2.75,2.75 c-0.08,0-4.25,0-4.25,0V16z M26,32h-5v-6h5c1.66,0,3,1.34,3,3C29,30.66,27.66,32,26,32z"></path>
    </g>

    <g id="typescript">
        <rect width="36" height="36" x="6" y="6" fill="#1976d2"></rect>
        <polygon fill="#fff" points="27.49,22 14.227,22 14.227,25.264 18.984,25.264 18.984,40 22.753,40 22.753,25.264 27.49,25.264"></polygon>
        <path fill="#fff" d="M39.194,26.084c0,0-1.787-1.192-3.807-1.192s-2.747,0.96-2.747,1.986 c0,2.648,7.381,2.383,7.381,7.712c0,8.209-11.254,4.568-11.254,4.568V35.22c0,0,2.152,1.622,4.733,1.622s2.483-1.688,2.483-1.92 c0-2.449-7.315-2.449-7.315-7.878c0-7.381,10.658-4.469,10.658-4.469L39.194,26.084z"></path>
    </g>

    <g id="figma">
        <path fill="#e64a19" d="M26,17h-8c-3.866,0-7-3.134-7-7v0c0-3.866,3.134-7,7-7h8V17z"></path>
        <path fill="#7c4dff" d="M25,31h-7c-3.866,0-7-3.134-7-7v0c0-3.866,3.134-7,7-7h7V31z"></path>
        <path fill="#66bb6a" d="M18,45L18,45c-3.866,0-7-3.134-7-7v0c0-3.866,3.134-7,7-7h7v7C25,41.866,21.866,45,18,45z"></path>
        <path fill="#ff7043" d="M32,17h-7V3h7c3.866,0,7,3.134,7,7v0C39,13.866,35.866,17,32,17z"></path>
        <circle cx="32" cy="24" r="7" fill="#29b6f6"></circle>
    </g>

    <g id="materialui">
        <polygon fill="#29b6f6" points="1,5 7,9 7,29 1,25"></polygon>
        <polygon fill="#0288d1" points="47,20 41,24 41,37 47,33"></polygon>
        <polygon fill="#0288d1" points="47,6 41,10 41,17 47,13"></polygon>
        <polygon fill="#0288d1" points="35,5 29,9 29,29 35,25"></polygon>
        <polygon fill="#29b6f6" points="1,12 18,23 18,16 1,5"></polygon>
        <polygon fill="#0288d1" points="35,12 18,23 18,16 35,5"></polygon>
        <polygon fill="#0288d1" points="35,26 18,37 18,30 35,19"></polygon>
        <polygon fill="#0288d1" points="47,34 30,45 30,38 47,27"></polygon>
        <polygon fill="#29b6f6" points="30,37.765 18,30 18,37 30,44.765"></polygon>
    </g>

    <g id="saas">
        <path fill="#f06292" d="M39.867,25.956c-1.538,0.008-2.87,0.377-3.986,0.928c-0.408-0.815-0.822-1.532-0.891-2.065	c-0.081-0.622-0.175-0.994-0.077-1.735c0.098-0.741,0.527-1.791,0.521-1.87c-0.006-0.079-0.096-0.456-0.983-0.463	c-0.887-0.006-1.646,0.171-1.735,0.405c-0.089,0.234-0.26,0.761-0.366,1.311c-0.155,0.804-1.771,3.673-2.688,5.173	c-0.3-0.586-0.555-1.102-0.608-1.51c-0.081-0.622-0.175-0.994-0.077-1.735c0.098-0.741,0.527-1.791,0.521-1.87	c-0.006-0.079-0.096-0.456-0.983-0.463c-0.887-0.006-1.646,0.171-1.735,0.405c-0.089,0.234-0.185,0.781-0.366,1.311	c-0.182,0.529-2.329,5.314-2.892,6.555c-0.287,0.632-0.536,1.14-0.712,1.486c-0.001-0.001-0.001-0.002-0.001-0.002	s-0.011,0.023-0.029,0.062c-0.151,0.295-0.24,0.458-0.24,0.458s0.001,0.002,0.003,0.006c-0.12,0.217-0.248,0.418-0.311,0.418	c-0.044,0-0.133-0.577,0.019-1.369c0.32-1.66,1.087-4.248,1.08-4.338c-0.004-0.046,0.143-0.497-0.501-0.733	c-0.626-0.229-0.849,0.153-0.906,0.154c-0.055,0.001-0.096,0.135-0.096,0.135s0.697-2.911-1.33-2.911	c-1.268,0-3.024,1.387-3.889,2.644c-0.546,0.298-1.715,0.936-2.954,1.617c-0.476,0.262-0.962,0.529-1.423,0.783	c-0.031-0.035-0.063-0.069-0.095-0.104c-2.459-2.623-7.003-4.478-6.811-8.005c0.07-1.282,0.516-4.658,8.733-8.752	c6.731-3.354,12.12-2.431,13.051-0.386c1.33,2.923-2.88,8.354-9.87,9.138c-2.663,0.299-4.066-0.734-4.415-1.118	c-0.367-0.405-0.422-0.423-0.559-0.347c-0.223,0.124-0.082,0.481,0,0.694c0.209,0.543,1.065,1.506,2.525,1.986	c1.285,0.422,4.412,0.653,8.193-0.81c4.236-1.638,7.543-6.196,6.571-10.005c-0.988-3.874-7.412-5.148-13.492-2.988	C12.44,9.332,8.523,11.35,5.706,13.984c-3.349,3.132-3.883,5.859-3.663,6.998c0.782,4.048,6.361,6.684,8.595,8.637	c-0.11,0.061-0.214,0.118-0.308,0.17c-1.12,0.554-5.373,2.78-6.437,5.131c-1.207,2.667,0.192,4.581,1.118,4.839	c2.869,0.798,5.813-0.638,7.396-2.998c1.582-2.359,1.389-5.432,0.663-6.834c-0.009-0.017-0.019-0.034-0.028-0.052	c0.289-0.171,0.584-0.345,0.876-0.517c0.57-0.335,1.13-0.647,1.615-0.911c-0.272,0.744-0.471,1.637-0.574,2.926	c-0.122,1.514,0.499,3.471,1.311,4.241c0.358,0.339,0.788,0.347,1.06,0.347c0.945,0,1.376-0.786,1.851-1.716	c0.582-1.14,1.099-2.468,1.099-2.468s-0.648,3.586,1.118,3.586c0.644,0,1.291-0.835,1.58-1.26c0.001,0.005,0.001,0.007,0.001,0.007	s0.017-0.028,0.05-0.083c0.067-0.102,0.105-0.167,0.105-0.167s0.001-0.007,0.003-0.019c0.259-0.449,0.833-1.473,1.693-3.162	c1.112-2.182,2.178-4.916,2.178-4.916s0.099,0.668,0.424,1.774c0.191,0.65,0.597,1.369,0.918,2.059	c-0.258,0.358-0.416,0.563-0.416,0.563s0.001,0.004,0.004,0.011c-0.206,0.274-0.437,0.569-0.679,0.857	c-0.878,1.045-1.923,2.239-2.063,2.583c-0.165,0.406-0.126,0.704,0.193,0.945c0.233,0.175,0.647,0.203,1.08,0.174	c0.789-0.053,1.343-0.249,1.617-0.368c0.427-0.151,0.924-0.388,1.39-0.731c0.861-0.633,1.38-1.538,1.33-2.738	c-0.028-0.661-0.238-1.316-0.505-1.934c0.078-0.112,0.156-0.226,0.235-0.34c1.357-1.984,2.41-4.164,2.41-4.164	s0.099,0.668,0.424,1.774c0.164,0.559,0.489,1.17,0.781,1.768c-1.276,1.037-2.067,2.242-2.342,3.032	c-0.508,1.462-0.11,2.124,0.636,2.275c0.338,0.068,0.816-0.087,1.175-0.239c0.447-0.148,0.984-0.395,1.486-0.764	c0.861-0.633,1.689-1.519,1.639-2.718c-0.023-0.546-0.171-1.088-0.372-1.608c1.082-0.451,2.482-0.701,4.266-0.493	c3.827,0.447,4.577,2.836,4.434,3.836c-0.144,1-0.946,1.55-1.215,1.716c-0.268,0.166-0.35,0.224-0.328,0.347	c0.033,0.179,0.157,0.173,0.386,0.134c0.315-0.053,2.009-0.813,2.082-2.659C46.089,28.509,43.844,25.935,39.867,25.956z M10.37,35.9	c-1.268,1.383-3.038,1.905-3.798,1.465c-0.82-0.475-0.495-2.511,1.06-3.979c0.948-0.894,2.172-1.718,2.984-2.225	c0.185-0.111,0.456-0.274,0.786-0.472c0.055-0.031,0.086-0.048,0.086-0.048l-0.001-0.002c0.064-0.038,0.129-0.077,0.196-0.118	C12.25,32.61,11.701,34.449,10.37,35.9z M19.605,29.623c-0.441,1.076-1.365,3.83-1.928,3.682c-0.483-0.127-0.777-2.22-0.096-4.28	c0.342-1.037,1.074-2.276,1.504-2.757c0.692-0.774,1.454-1.027,1.639-0.713C20.959,25.955,19.882,28.948,19.605,29.623z M27.234,33.263c-0.187,0.098-0.359,0.159-0.438,0.112c-0.059-0.035,0.077-0.164,0.077-0.164s0.954-1.027,1.33-1.494	c0.219-0.272,0.472-0.595,0.748-0.955c0.002,0.036,0.003,0.072,0.003,0.107C28.952,32.099,27.764,32.929,27.234,33.263z M33.111,31.923c-0.14-0.099-0.116-0.42,0.343-1.421c0.18-0.393,0.592-1.054,1.306-1.686c0.083,0.26,0.133,0.509,0.132,0.741	C34.883,31.105,33.779,31.683,33.111,31.923z"></path>
    </g>

    <g id="git">
        <path fill="#F4511E" d="M42.2,22.1L25.9,5.8C25.4,5.3,24.7,5,24,5c0,0,0,0,0,0c-0.7,0-1.4,0.3-1.9,0.8l-3.5,3.5l4.1,4.1c0.4-0.2,0.8-0.3,1.3-0.3c1.7,0,3,1.3,3,3c0,0.5-0.1,0.9-0.3,1.3l4,4c0.4-0.2,0.8-0.3,1.3-0.3c1.7,0,3,1.3,3,3s-1.3,3-3,3c-1.7,0-3-1.3-3-3c0-0.5,0.1-0.9,0.3-1.3l-4-4c-0.1,0-0.2,0.1-0.3,0.1v10.4c1.2,0.4,2,1.5,2,2.8c0,1.7-1.3,3-3,3s-3-1.3-3-3c0-1.3,0.8-2.4,2-2.8V18.8c-1.2-0.4-2-1.5-2-2.8c0-0.5,0.1-0.9,0.3-1.3l-4.1-4.1L5.8,22.1C5.3,22.6,5,23.3,5,24c0,0.7,0.3,1.4,0.8,1.9l16.3,16.3c0,0,0,0,0,0c0.5,0.5,1.2,0.8,1.9,0.8s1.4-0.3,1.9-0.8l16.3-16.3c0.5-0.5,0.8-1.2,0.8-1.9C43,23.3,42.7,22.6,42.2,22.1z"></path>
    </g>

    <!-- link -->

    <g id="link">
        <path id="Vector" d="M9.62 7.04C8.93 6.36 8.01 5.98 7.04 5.98C6.08 5.98 5.15 6.36 4.47 7.04L1.89 9.62C1.21 10.3 0.83 11.22 0.83 12.19C0.83 13.15 1.21 14.08 1.89 14.76C2.58 15.45 3.5 15.83 4.47 15.83C5.43 15.83 6.36 15.45 7.04 14.76L8.33 13.48" stroke="currentColor" stroke-opacity="1.000000" stroke-width="1.666667" stroke-linejoin="round" stroke-linecap="round"/>
        <path id="Vector" d="M7.04 9.62C7.72 10.3 8.65 10.68 9.62 10.68C10.58 10.68 11.51 10.3 12.19 9.62L14.76 7.04C15.45 6.36 15.83 5.43 15.83 4.47C15.83 3.5 15.45 2.58 14.76 1.89C14.08 1.21 13.15 0.83 12.19 0.83C11.22 0.83 10.3 1.21 9.62 1.89L8.33 3.18" stroke="currentColor" stroke-opacity="1.000000" stroke-width="1.666667" stroke-linejoin="round" stroke-linecap="round"/>
    </g>

    <!-- arrowGoTop -->

    <g id="arrowGoTop">
        <path d="M6.80722 4.2806V15H9.19278V4.2806L14.3134 9.08118L16 7.5L8 0L0 7.5L1.6866 9.08118L6.80722 4.2806Z" fill="currentColor"/>
    </g>

    <!-- theme -->
    <g id="theme">
        <g clip-path="url(#clip0_1_235)">
            <path d="M15.5 27C8.59625 27 3 21.4037 3 14.5C3 7.59625 8.59625 2 15.5 2C22.4037 2 28 7.59625 28 14.5C28 21.4037 22.4037 27 15.5 27ZM7.16125 20.0312C7.98286 21.2605 9.06683 22.2923 10.3351 23.0523C11.6034 23.8123 13.0245 24.2816 14.4959 24.4264C15.9674 24.5712 17.4526 24.3879 18.8448 23.8897C20.2369 23.3915 21.5012 22.5908 22.5466 21.5452C23.5921 20.4997 24.3927 19.2353 24.8908 17.8432C25.3888 16.451 25.572 14.9657 25.4271 13.4943C25.2822 12.0228 24.8127 10.6018 24.0526 9.3336C23.2925 8.06538 22.2606 6.98149 21.0312 6.16C21.5702 8.08278 21.5875 10.1144 21.0814 12.0461C20.5752 13.9778 19.5639 15.7398 18.1513 17.1513C16.74 18.5637 14.9781 19.5749 13.0467 20.081C11.1152 20.5872 9.08385 20.57 7.16125 20.0312Z" fill="currentColor"/>
        </g>
        <defs>
            <clipPath id="clip0_1_235">
                <rect width="30" height="30" fill="white"/>
            </clipPath>
        </defs>
    </g>

</svg>
